<?xml version="1.0" encoding="UTF-8"?>
<svg version="1.1" xmlns="http://www.w3.org/2000/svg" width="500" height="500">
<path d="M0 0 C0.74628662 0.0103125 1.49257324 0.020625 2.26147461 0.03125 C7.56581721 0.18915535 11.7917154 1.00135467 16.5625 3.4375 C16.14061541 5.2536982 15.69950835 7.06544073 15.25 8.875 C15.00636719 9.88433594 14.76273437 10.89367187 14.51171875 11.93359375 C14.19847656 12.75988281 13.88523437 13.58617187 13.5625 14.4375 C10.01819466 15.61893511 8.08828712 14.88508723 4.5703125 13.91796875 C2.19229646 13.34891044 -0.00213168 13.28528948 -2.4375 13.4375 C-2.7675 14.0975 -3.0975 14.7575 -3.4375 15.4375 C-2.41269531 15.81261719 -1.38789063 16.18773437 -0.33203125 16.57421875 C1.02891401 17.09043937 2.38957637 17.60740626 3.75 18.125 C4.42353516 18.36927734 5.09707031 18.61355469 5.79101562 18.86523438 C10.45239265 20.66156991 13.26369885 22.67750723 16.5625 26.4375 C16.69205078 25.385625 16.69205078 25.385625 16.82421875 24.3125 C18.00380986 16.34755451 20.12827622 10.78134947 25.9375 5.125 C31.72924369 1.4017362 36.6146257 -0.10308681 43.5 0 C44.55441284 0.01027222 44.55441284 0.01027222 45.63012695 0.02075195 C52.90490096 0.24611042 56.88665245 2.18735547 62.3125 6.75 C68.49504344 14.13470466 70.33021962 20.9317352 69.5625 30.4375 C68.37819654 36.26576506 66.25073737 41.56802178 61.5625 45.4375 C53.57874424 50.67950334 45.84021109 52.25521447 36.4375 50.875 C28.50814648 49.02025326 23.35846845 43.7322086 18.5625 37.4375 C18.15 38.51 17.7375 39.5825 17.3125 40.6875 C15.23035918 45.52627797 12.4175528 48.37024254 7.5625 50.4375 C0.20747615 51.82990146 -6.40797443 51.24355099 -13.703125 49.91796875 C-21.23350959 48.94910128 -28.85941263 49.29346032 -36.4375 49.4375 C-36.81503418 48.67288452 -36.81503418 48.67288452 -37.20019531 47.89282227 C-38.34837217 45.58778618 -39.51754979 43.29405598 -40.6875 41 C-41.08324219 40.19755859 -41.47898438 39.39511719 -41.88671875 38.56835938 C-42.27988281 37.80458984 -42.67304688 37.04082031 -43.078125 36.25390625 C-43.43422852 35.54693604 -43.79033203 34.83996582 -44.15722656 34.11157227 C-45.51418592 31.97683684 -45.51418592 31.97683684 -49.4375 31.4375 C-49.4375 37.3775 -49.4375 43.3175 -49.4375 49.4375 C-55.0475 49.4375 -60.6575 49.4375 -66.4375 49.4375 C-66.4375 33.5975 -66.4375 17.7575 -66.4375 1.4375 C-60.8275 1.4375 -55.2175 1.4375 -49.4375 1.4375 C-49.4375 7.7075 -49.4375 13.9775 -49.4375 20.4375 C-45.50588355 19.91647556 -45.50588355 19.91647556 -44.26489258 17.77929688 C-43.95704834 17.07869141 -43.6492041 16.37808594 -43.33203125 15.65625 C-42.98849609 14.89699219 -42.64496094 14.13773437 -42.29101562 13.35546875 C-41.94748047 12.55753906 -41.60394531 11.75960938 -41.25 10.9375 C-40.54964633 9.36392859 -39.84789627 7.79097769 -39.14453125 6.21875 C-38.8400708 5.51814453 -38.53561035 4.81753906 -38.22192383 4.09570312 C-37.4375 2.4375 -37.4375 2.4375 -36.4375 1.4375 C-33.57482433 1.36424832 -30.736781 1.34511795 -27.875 1.375 C-27.06869141 1.37951172 -26.26238281 1.38402344 -25.43164062 1.38867188 C-23.43356244 1.40049482 -21.43552217 1.41843086 -19.4375 1.4375 C-19.96632072 8.03922961 -22.36555103 12.4033676 -25.73046875 18.0078125 C-27.27391164 20.70745455 -28.43851103 22.78943004 -28.43359375 25.94140625 C-27.05077401 29.40658984 -25.28333378 32.54966821 -23.375 35.75 C-22.99794922 36.39517578 -22.62089844 37.04035156 -22.23242188 37.70507812 C-21.30712507 39.28628152 -20.37317319 40.8624146 -19.4375 42.4375 C-17.89178722 40.11893083 -16.64131448 37.93111571 -15.4375 35.4375 C-14.8084375 35.581875 -14.179375 35.72625 -13.53125 35.875 C-8.03183381 37.06764447 -3.06083057 37.6457715 2.5625 37.4375 C2.2325 36.4475 1.9025 35.4575 1.5625 34.4375 C-1.49610954 33.10588584 -4.55268151 32.00217956 -7.71484375 30.95117188 C-13.43194656 28.87886251 -16.65855979 25.99538042 -19.4375 20.4375 C-19.97468762 15.54116692 -19.96168708 11.5697441 -17.875 7.0625 C-12.52429684 1.30020429 -7.59213786 -0.23112048 0 0 Z M35.5625 17.4375 C33.12151759 21.3208811 33.38685914 24.88767595 34.03125 29.28125 C34.84042357 32.56554271 35.98002326 34.26278274 38.5625 36.4375 C42.48158586 37.57759771 44.59408504 37.84638632 48.375 36.25 C51.27904183 33.84379391 52.36773693 31.80990025 52.8984375 28.0703125 C52.99031606 22.17170917 52.47882366 18.92975361 48.5625 14.4375 C43.31636526 11.81443263 39.43528901 13.45713352 35.5625 17.4375 Z " fill="#000000" transform="translate(297.4375,262.5625)"/>
<path d="M0 0 C1.01449219 -0.01611328 2.02898437 -0.03222656 3.07421875 -0.04882812 C12.44126111 -0.05498255 12.44126111 -0.05498255 16.25 3.3125 C20.58172219 9.12612715 21.73638659 17.63225093 23.32421875 24.57226562 C24.47769722 29.35262102 25.62408372 32.77025871 29.25 36.3125 C32.15291913 37.28013971 34.12634168 37.46245308 37.15234375 37.5234375 C59.50283866 38.12488796 76.8869326 42.2449099 92.9375 58.9375 C103.18729064 71.27117242 108.02311047 87.90056278 107.03515625 103.76171875 C106.08947541 111.94861285 103.92507162 118.95209119 100.25 126.3125 C99.61964844 127.59060547 99.61964844 127.59060547 98.9765625 128.89453125 C90.9987663 143.53586243 77.79933812 152.52952293 62.234375 157.5859375 C55.22161175 159.29323326 48.24553564 159.51964818 41.0625 159.5625 C39.74862305 159.5934375 39.74862305 159.5934375 38.40820312 159.625 C33.56749415 159.65435987 30.07335718 159.62463616 26.25 156.3125 C22.02290775 151.11226421 21.14720681 143.78357364 19.58789062 137.41601562 C18.19207421 131.98374857 16.89236689 127.63914716 13.25 123.3125 C10.27594269 122.32114756 8.20230486 122.16092348 5.09375 122.1015625 C4.07023437 122.07320313 3.04671875 122.04484375 1.9921875 122.015625 C-0.13786251 121.96429849 -2.26809054 121.91981605 -4.3984375 121.8828125 C-21.63140384 121.36711276 -36.85330439 114.91265239 -48.75 102.3125 C-60.59408381 89.42396435 -65.48720383 74.37443646 -65.0234375 56.9296875 C-63.72196681 39.71308954 -55.14386171 24.27819751 -42.19140625 13.10546875 C-29.73019615 3.3571491 -15.52083912 -0.05006722 0 0 Z M-43.6328125 26.71875 C-53.38801239 38.6697698 -57.09382531 52.02933658 -55.97753906 67.28173828 C-54.49931943 80.47468988 -47.37977511 92.38525297 -37.75 101.3125 C-24.50742534 111.05990332 -10.03050897 113.7815095 6.15625 113.1875 C9.48229289 113.32188557 11.37998275 113.62875655 14.25 115.3125 C19.38810413 121.12120227 20.27891693 128.61984205 21.9609375 135.99023438 C23.70731356 143.35354963 23.70731356 143.35354963 28.25 149.3125 C36.86524448 153.62012224 53.07064018 151.09744292 62 148.25 C75.52366975 143.52293317 85.77440361 135.20328105 92.625 122.5625 C98.67990688 109.37325995 99.79605417 95.97274942 95.5625 82.0625 C90.48773689 68.41501208 81.58052792 57.55880451 68.25 51.3125 C58.46803186 47.55391126 49.46440865 46.20519931 39.0625 46.4375 C30.52067642 46.42653489 30.52067642 46.42653489 26.25 43.3125 C23.54168435 38.49356594 22.43735723 33.03397448 21.0390625 27.7265625 C20.82523926 26.92677979 20.61141602 26.12699707 20.39111328 25.30297852 C19.97010858 23.70857953 19.56430962 22.11007237 19.17529297 20.50756836 C18.02782411 16.06076525 17.01924164 13.23665373 13.25 10.3125 C-3.99159352 1.69170324 -31.96910474 14.02251729 -43.6328125 26.71875 Z " fill="#F58327" transform="translate(228.75,82.6875)"/>
<path d="M0 0 C7.26 0 14.52 0 22 0 C24.02617228 5.40312608 25.88244321 10.69578887 27.48046875 16.21875 C27.67402954 16.87907227 27.86759033 17.53939453 28.0670166 18.21972656 C28.77714467 20.64552069 29.48203106 23.07284681 30.1875 25.5 C31.775625 30.945 33.36375 36.39 35 42 C35.33 28.14 35.66 14.28 36 0 C40.62 -0.0825 45.24 -0.165 50 -0.25 C51.44117188 -0.28641602 52.88234375 -0.32283203 54.3671875 -0.36035156 C63.08411771 -0.43558119 68.84272882 0.16251891 75.4375 6.25 C77.44351666 9.78058932 78.19830026 12.98060623 78 17 C76.58245311 21.55107159 75.269481 24.65867171 71 27 C70.34 27 69.68 27 69 27 C69.8604139 31.33229715 69.8604139 31.33229715 72 35 C74.32817964 35.36760731 76.6618385 35.70241581 79 36 C79 40.29 79 44.58 79 49 C72.23101001 50.18188714 67.21364037 50.16308051 61 47 C55.92119303 42.85676274 55.291481 36.13453476 54 30 C53.34 30 52.68 30 52 30 C52 35.94 52 41.88 52 48 C41.11 48 30.22 48 19 48 C17 42 17 42 17 39 C13.04 39 9.08 39 5 39 C4.67 41.97 4.34 44.94 4 48 C-1.61 48 -7.22 48 -13 48 C-11.42897361 39.16634305 -9.0532723 30.60415982 -6.6315918 21.97460938 C-5.93162989 19.47907159 -5.23788258 16.98186493 -4.54492188 14.484375 C-4.10192281 12.89573282 -3.65857625 11.30718748 -3.21484375 9.71875 C-3.00754135 8.97298706 -2.80023895 8.22722412 -2.58665466 7.4588623 C-1.11586289 2.23172578 -1.11586289 2.23172578 0 0 Z M52 11 C52 13.97 52 16.94 52 20 C56.455 19.505 56.455 19.505 61 19 C61.66 17.35 62.32 15.7 63 14 C62.009245 12.33358994 62.009245 12.33358994 60 11 C57.28153765 10.72654521 54.74322801 10.86508715 52 11 Z M11 13 C10.33030409 15.4575448 9.6641232 17.91594924 9 20.375 C8.80921875 21.07367188 8.6184375 21.77234375 8.421875 22.4921875 C7.37089721 26.19330015 7.37089721 26.19330015 7 30 C9.64 30 12.28 30 15 30 C14.68853528 28.10399631 14.37578283 26.20820413 14.0625 24.3125 C13.88847656 23.25675781 13.71445313 22.20101563 13.53515625 21.11328125 C13.06832879 18.39750396 12.55577384 15.69875765 12 13 C11.67 13 11.34 13 11 13 Z " fill="#000000" transform="translate(151,264)"/>
<path d="M0 0 C4.0507393 4.16259404 5.20760897 8.27791198 6.5625 13.75 C6.98835615 15.36100198 7.41542602 16.97168365 7.84375 18.58203125 C8.04355469 19.34725098 8.24335938 20.1124707 8.44921875 20.90087891 C10.01323385 27.74710591 10.01323385 27.74710591 13.46875 33.6953125 C17.46953921 35.75744768 21.5019659 35.4016384 25.9375 35.4375 C37.9113523 35.77799841 48.16929091 37.68359669 58 45 C59.010625 45.70125 60.02125 46.4025 61.0625 47.125 C68.92967635 53.98191054 73.35090541 64.11148363 74.3125 74.31640625 C74.73170554 86.25066409 71.72799266 96.77460119 64 106 C52.74797683 117.92152935 40.60310056 120.83067971 24.5625 121.3125 C19.54312986 121.18551194 16.21276088 120.80850725 12 118 C8.41326362 111.83419582 6.57471446 105.56700215 4.8125 98.6875 C4.29867917 96.73294086 3.78437802 94.7785079 3.26953125 92.82421875 C3.04885986 91.96916748 2.82818848 91.11411621 2.60083008 90.2331543 C2.1268897 88.47162133 1.57685508 86.73056525 1 85 C-1.80866903 83.93225108 -4.54570682 83.86724247 -7.52734375 83.82421875 C-22.98814341 83.45275798 -36.51016457 82.1339666 -48.1875 70.89453125 C-57.64273072 60.79620579 -61.07356896 49.78682339 -61 36 C-59.69173006 24.5069189 -54.34177361 15.53402024 -45.625 8.0625 C-35.09160937 0.10204284 -12.6734015 -7.39281754 0 0 Z M-44.3125 19.375 C-50.20132355 26.32612113 -52.37213715 33.4810602 -52.20703125 42.546875 C-51.40441926 52.05706991 -47.11515905 60.63788052 -39.82421875 66.85546875 C-30.37115606 73.46771467 -22.09806849 74.42302723 -10.86914062 74.52734375 C-1.34278137 74.74934253 -1.34278137 74.74934253 2 78 C3.09373367 80.53129689 3.86793944 82.74018283 4.5625 85.375 C4.76738037 86.08237305 4.97226074 86.78974609 5.18334961 87.51855469 C5.80648807 89.6745122 6.40588979 91.83588378 7 94 C7.6758011 96.41996424 8.36213676 98.83702976 9.0625 101.25 C9.34222656 102.26578125 9.62195313 103.2815625 9.91015625 104.328125 C11.14827829 107.36352096 12.48204887 108.92471325 15 111 C25.21264826 114.40421609 38.45535909 112.37625032 48 108 C56.57543857 103.12377022 61.95867369 95.31664215 65 86 C66.0169467 75.65315853 65.27888064 66.92594467 59.08203125 58.34375 C53.39829381 51.50314564 47.36594268 47.78864756 39 45 C37.3591855 44.88653755 35.7147134 44.82210208 34.0703125 44.7890625 C33.10996094 44.76070312 32.14960938 44.73234375 31.16015625 44.703125 C29.14471268 44.65124743 27.12906007 44.60691549 25.11328125 44.5703125 C15.41980773 44.2588756 15.41980773 44.2588756 12 41 C8.7963666 35.03747289 7.50454004 28.49429871 5.98242188 21.93945312 C4.59535667 16.32385906 3.01373548 11.38759409 -1.7109375 7.64453125 C-5.31676158 6.62923949 -8.90955336 6.66120607 -12.625 6.6875 C-13.43243652 6.69241455 -14.23987305 6.6973291 -15.07177734 6.70239258 C-27.00846532 6.93642175 -36.11578274 10.59600228 -44.3125 19.375 Z " fill="#F58327" transform="translate(243,103)"/>
<path d="M0 0 C23.1 0 46.2 0 70 0 C70 3.63 70 7.26 70 11 C66.7 11 63.4 11 60 11 C60 23.21 60 35.42 60 48 C54.39 48 48.78 48 43 48 C43 35.79 43 23.58 43 11 C34.09 11 25.18 11 16 11 C16 13.97 16 16.94 16 20 C21.61 20 27.22 20 33 20 C33 23.3 33 26.6 33 30 C27.39 30 21.78 30 16 30 C16 35.94 16 41.88 16 48 C10.72 48 5.44 48 0 48 C0 32.16 0 16.32 0 0 Z " fill="#000000" transform="translate(368,264)"/>
<path d="M0 0 C1.46373047 -0.0299707 1.46373047 -0.0299707 2.95703125 -0.06054688 C7.14962402 -0.05768699 10.09737637 0.04056679 13.8671875 1.96484375 C18.96711424 8.24549283 20.10968621 16.92090669 21.89257812 24.63476562 C23.06838154 29.38744673 24.15342928 33.0131146 27.875 36.4375 C31.74131023 37.79558208 35.62428329 37.47803637 39.6875 37.375 C49.27656788 37.34500292 55.70426651 38.76075037 62.875 45.4375 C67.68333889 51.384656 69.64987984 57.81784826 68.875 65.4375 C66.93747459 73.02818498 63.4973936 78.18427617 56.875 82.4375 C50.98336163 85.59108477 45.93636319 85.95614564 39.3125 85.9375 C38.39275391 85.96585937 37.47300781 85.99421875 36.52539062 86.0234375 C32.10610828 86.03614572 28.87070363 85.94314714 25.3203125 83.13671875 C22.05258543 79.52969095 22.05258543 79.52969095 21.3125 76.75 C21.09335938 75.98945313 20.87421875 75.22890625 20.6484375 74.4453125 C20.39320313 73.45273438 20.13796875 72.46015625 19.875 71.4375 C19.28570174 69.14720029 18.69112137 66.85870739 18.08422852 64.57299805 C17.65903881 62.96356915 17.24763208 61.35042428 16.85131836 59.73364258 C15.68782134 55.28458593 14.7046191 52.30786961 10.875 49.4375 C8.1024592 48.51331973 6.35580948 48.30335527 3.48828125 48.26171875 C2.63169922 48.23787109 1.77511719 48.21402344 0.89257812 48.18945312 C-0.89104352 48.14695528 -2.67496582 48.11545241 -4.45898438 48.09570312 C-11.63782273 47.86516537 -16.91578731 46.24975433 -22.3671875 41.47265625 C-22.90601563 40.82167969 -23.44484375 40.17070312 -24 39.5 C-24.55429688 38.85160156 -25.10859375 38.20320313 -25.6796875 37.53515625 C-29.78703303 31.57395477 -29.97264666 25.46335481 -29.125 18.4375 C-26.54799529 10.42998322 -22.49218705 5.768941 -15.125 1.8359375 C-10.21283436 -0.20896641 -5.2466324 -0.03842407 0 0 Z M-16.125 13.4375 C-20.05906766 17.78568005 -20.7730511 21.35618641 -20.5 27.0390625 C-19.91701212 30.76775584 -18.72057911 32.71214193 -16.125 35.4375 C-9.58914289 39.84845569 -3.57732597 39.95099743 4.07226562 39.83789062 C8.20015095 39.89407481 10.30647195 40.0501094 13.79296875 42.42578125 C16.42164779 46.22824192 17.44420489 49.72969842 18.5 54.1875 C18.91674956 55.7997948 19.33470467 57.41177849 19.75390625 59.0234375 C19.94742676 59.78881836 20.14094727 60.55419922 20.34033203 61.34277344 C22.30697128 69.95564852 22.30697128 69.95564852 27.875 76.4375 C35.00886303 78.45528972 46.43343466 78.21672429 53.125 74.8125 C57.55520602 70.98641298 59.59563943 67.71229322 60.3125 61.875 C59.63589326 56.5588042 57.89786886 53.11749063 53.875 49.625 C50.20399026 46.94822206 47.76551816 46.32381631 43.34765625 46.26171875 C42.47302734 46.23787109 41.59839844 46.21402344 40.69726562 46.18945312 C38.86156275 46.14658108 37.02555222 46.11527774 35.18945312 46.09570312 C28.54430654 45.88544462 28.54430654 45.88544462 25.37109375 43.76171875 C23.6321995 41.06030341 22.73983907 38.65893276 21.875 35.5625 C21.54371094 34.42039062 21.21242187 33.27828125 20.87109375 32.1015625 C20.19717788 29.62260921 19.54407576 27.13791899 18.91015625 24.6484375 C18.58917969 23.42382812 18.26820313 22.19921875 17.9375 20.9375 C17.66035156 19.8134375 17.38320312 18.689375 17.09765625 17.53125 C15.64082829 13.84496327 13.91086063 11.95593642 10.875 9.4375 C2.33391126 7.30222781 -9.47437744 7.12793501 -16.125 13.4375 Z " fill="#F58327" transform="translate(230.125,119.5625)"/>
<path d="M0 0 C0.99 0.495 1.98 0.99 3 1.5 C2.74337755 2.94010481 2.46909179 4.3770687 2.1875 5.8125 C2.03667969 6.61300781 1.88585937 7.41351563 1.73046875 8.23828125 C0.89859638 10.81397163 0.23847846 11.97329579 -2 13.5 C-4.05078125 13.35546875 -4.05078125 13.35546875 -6.3125 12.6875 C-9.98684239 11.70887613 -13.170958 11.30363887 -17 11.5 C-17 12.49 -17 13.48 -17 14.5 C-16.27554688 14.67015625 -15.55109375 14.8403125 -14.8046875 15.015625 C-6.62469753 17.06607582 -1.02549461 19.42708166 4 26.5 C6.18341168 30.86682336 5.22436371 35.67265881 4 40.1875 C1.35409296 44.56978353 -1.23612309 46.65418917 -6 48.5 C-13.71455003 50.14390829 -21.43634058 49.71850045 -29 47.5 C-29.99 46.84 -30.98 46.18 -32 45.5 C-31.49202991 41.1822542 -30.80317221 37.46697886 -29 33.5 C-28.34773438 33.644375 -27.69546875 33.78875 -27.0234375 33.9375 C-20.07622965 35.45873744 -20.07622965 35.45873744 -13 35.5 C-12.34 34.84 -11.68 34.18 -11 33.5 C-11.556875 33.25765625 -12.11375 33.0153125 -12.6875 32.765625 C-15.13193108 31.6920573 -17.56642487 30.59793855 -20 29.5 C-20.73863281 29.17644531 -21.47726563 28.85289062 -22.23828125 28.51953125 C-26.59523373 26.50926127 -29.33689026 24.65445119 -32 20.5 C-33.67009208 15.48972375 -33.57792698 11.16956683 -31.875 6.25 C-25.36847051 -3.29290992 -10.12478616 -3.86748588 0 0 Z " fill="#000000" transform="translate(95,264.5)"/>
<path d="M0 0 C4.269375 -0.0825 8.53875 -0.165 12.9375 -0.25 C14.26515381 -0.28641602 15.59280762 -0.32283203 16.96069336 -0.36035156 C24.06356913 -0.42642978 29.94580296 0.02378848 36 4 C39.63758791 7.910407 40.74394805 11.61607601 41.09375 16.828125 C40.88155968 21.74386743 38.61780158 24.38219842 35.25 27.75 C29.00655322 32.07238623 23.33275949 32.22562337 16 32 C16 37.28 16 42.56 16 48 C10.72 48 5.44 48 0 48 C0 32.16 0 16.32 0 0 Z M16 11 C16 14.3 16 17.6 16 21 C20.90525868 21.51319508 20.90525868 21.51319508 25.0625 19.3125 C26.2865041 16.96961559 26.2865041 16.96961559 25.25 14.3125 C24.1977169 12.10244853 24.1977169 12.10244853 23 11 C20.66702567 10.95907063 18.33294775 10.95758277 16 11 Z " fill="#000000" transform="translate(101,264)"/>
<path d="M0 0 C2.31 0 4.62 0 7 0 C6.979375 0.969375 6.95875 1.93875 6.9375 2.9375 C6.64381501 5.87465895 6.64381501 5.87465895 8 7 C8.99 4.69 9.98 2.38 11 0 C12.65 0.33 14.3 0.66 16 1 C16.66 3.64 17.32 6.28 18 9 C14 8 14 8 12 7 C12 7.66 12 8.32 12 9 C8.04 9 4.08 9 0 9 C0 6.03 0 3.06 0 0 Z " fill="#000000" transform="translate(241,336)"/>
<path d="M0 0 C1.11375 0.556875 1.11375 0.556875 2.25 1.125 C2.25 3.765 2.25 6.405 2.25 9.125 C-0.5625 9.75 -0.5625 9.75 -3.75 10.125 C-4.74 9.465 -5.73 8.805 -6.75 8.125 C-6.9375 4.5 -6.9375 4.5 -6.75 1.125 C-4.02098495 -0.69434337 -3.21400584 -1.02263822 0 0 Z M-2.75 2.125 C-3.08 3.445 -3.41 4.765 -3.75 6.125 C-3.42 5.465 -3.09 4.805 -2.75 4.125 C-2.09 4.125 -1.43 4.125 -0.75 4.125 C-0.75 3.465 -0.75 2.805 -0.75 2.125 C-1.41 2.125 -2.07 2.125 -2.75 2.125 Z " fill="#000000" transform="translate(315.75,335.875)"/>
<path d="M0 0 C1.32 0 2.64 0 4 0 C4.33 0.66 4.66 1.32 5 2 C5.33 1.34 5.66 0.68 6 0 C6.99 0 7.98 0 9 0 C9 2.97 9 5.94 9 9 C8.2575 8.814375 7.515 8.62875 6.75 8.4375 C3.77159084 7.77947289 3.77159084 7.77947289 0 9 C0 6.03 0 3.06 0 0 Z " fill="#000000" transform="translate(330,336)"/>
<path d="M0 0 C0 0.99 0 1.98 0 3 C0.99 3.33 1.98 3.66 3 4 C2.67 5.98 2.34 7.96 2 10 C-3.75 11.125 -3.75 11.125 -6 10 C-6.36567164 3.539801 -6.36567164 3.539801 -4.6875 1.0625 C-3 0 -3 0 0 0 Z " fill="#000000" transform="translate(212,335)"/>
<path d="M0 0 C0 2.64 0 5.28 0 8 C-5.3864279 9.31668238 -5.3864279 9.31668238 -7.9375 8 C-9.58971281 4.88995237 -8.69377357 2.34272722 -8 -1 C-4.37673261 -2.2077558 -3.35853631 -1.54311128 0 0 Z M-5 1 C-5.33 2.32 -5.66 3.64 -6 5 C-5.01 5 -4.02 5 -3 5 C-3 3.68 -3 2.36 -3 1 C-3.66 1 -4.32 1 -5 1 Z " fill="#000000" transform="translate(166,337)"/>
<path d="M0 0 C0.763125 0.20625 1.52625 0.4125 2.3125 0.625 C2.6425 1.945 2.9725 3.265 3.3125 4.625 C2.3225 4.625 1.3325 4.625 0.3125 4.625 C0.3125 3.965 0.3125 3.305 0.3125 2.625 C-0.6775 3.12 -0.6775 3.12 -1.6875 3.625 C-2.33963292 5.64963255 -2.33963292 5.64963255 -2.6875 7.625 C-1.6975 6.965 -0.7075 6.305 0.3125 5.625 C1.3025 5.625 2.2925 5.625 3.3125 5.625 C2.9825 6.945 2.6525 8.265 2.3125 9.625 C0 10.25 0 10.25 -2.6875 10.625 C-3.6775 9.965 -4.6675 9.305 -5.6875 8.625 C-6.0625 5.125 -6.0625 5.125 -5.6875 1.625 C-2.6875 -0.375 -2.6875 -0.375 0 0 Z " fill="#000000" transform="translate(346.6875,335.375)"/>
<path d="M0 0 C0.763125 0.20625 1.52625 0.4125 2.3125 0.625 C2.6425 1.945 2.9725 3.265 3.3125 4.625 C2.3225 4.625 1.3325 4.625 0.3125 4.625 C0.3125 3.965 0.3125 3.305 0.3125 2.625 C-0.6775 3.12 -0.6775 3.12 -1.6875 3.625 C-2.33963292 5.64963255 -2.33963292 5.64963255 -2.6875 7.625 C-1.6975 6.965 -0.7075 6.305 0.3125 5.625 C1.3025 5.625 2.2925 5.625 3.3125 5.625 C2.9825 6.945 2.6525 8.265 2.3125 9.625 C0 10.25 0 10.25 -2.6875 10.625 C-3.6775 9.965 -4.6675 9.305 -5.6875 8.625 C-6.0625 5.125 -6.0625 5.125 -5.6875 1.625 C-2.6875 -0.375 -2.6875 -0.375 0 0 Z " fill="#000000" transform="translate(225.6875,335.375)"/>
<path d="M0 0 C6.15234375 -0.09765625 6.15234375 -0.09765625 8 0 C9 1 9 1 9.125 4.5 C9 8 9 8 8 9 C5.32941149 9.14115161 2.67567762 9.04247107 0 9 C0 6.03 0 3.06 0 0 Z M3 2 C3 3.65 3 5.3 3 7 C3.99 6.67 4.98 6.34 6 6 C5.67 4.68 5.34 3.36 5 2 C4.34 2 3.68 2 3 2 Z " fill="#000000" transform="translate(423,321)"/>
<path d="M0 0 C2.64 0 5.28 0 8 0 C9.125 6.75 9.125 6.75 8 9 C5.36 9 2.72 9 0 9 C0 6.03 0 3.06 0 0 Z M3 2 C3 3.65 3 5.3 3 7 C3.99 6.67 4.98 6.34 6 6 C5.67 4.68 5.34 3.36 5 2 C4.34 2 3.68 2 3 2 Z " fill="#000000" transform="translate(141,336)"/>
<path d="M0 0 C2.31 0 4.62 0 7 0 C7.91058531 3.07322544 8.08886184 5.80097361 8 9 C7.01 9 6.02 9 5 9 C4.67 8.34 4.34 7.68 4 7 C3.67 7.66 3.34 8.32 3 9 C2.01 9 1.02 9 0 9 C0 6.03 0 3.06 0 0 Z " fill="#000000" transform="translate(231,336)"/>
<path d="M0 0 C2.64 0 5.28 0 8 0 C7.814375 0.928125 7.62875 1.85625 7.4375 2.8125 C6.75876119 6.01343771 6.75876119 6.01343771 8 9 C5.36 9 2.72 9 0 9 C0 6.03 0 3.06 0 0 Z " fill="#000000" transform="translate(320,336)"/>
<path d="M0 0 C1.32 0 2.64 0 4 0 C4.99 2.97 5.98 5.94 7 9 C5.68 9 4.36 9 3 9 C3 8.34 3 7.68 3 7 C2.01 7.66 1.02 8.32 0 9 C-0.99 9 -1.98 9 -3 9 C-2.01 6.03 -1.02 3.06 0 0 Z " fill="#000000" transform="translate(301,336)"/>
<path d="M0 0 C1.32 0 2.64 0 4 0 C4.99 2.97 5.98 5.94 7 9 C5.68 9 4.36 9 3 9 C3 8.34 3 7.68 3 7 C2.01 7.66 1.02 8.32 0 9 C-0.99 9 -1.98 9 -3 9 C-2.01 6.03 -1.02 3.06 0 0 Z " fill="#000000" transform="translate(185,336)"/>
<path d="M0 0 C2.31 0 4.62 0 7 0 C6.979375 0.928125 6.95875 1.85625 6.9375 2.8125 C6.84230396 6.02286011 6.84230396 6.02286011 8 9 C5.36 9 2.72 9 0 9 C0 6.03 0 3.06 0 0 Z " fill="#000000" transform="translate(286,336)"/>
<path d="M0 0 C1.32 0 2.64 0 4 0 C4.33 0.99 4.66 1.98 5 3 C5.66 2.01 6.32 1.02 7 0 C7.99 0 8.98 0 10 0 C9.5020163 3.73487777 9.12508244 5.81237635 7 9 C5.68 9 4.36 9 3 9 C2.01 6.03 1.02 3.06 0 0 Z " fill="#000000" transform="translate(274,336)"/>
<path d="M0 0 C1.32 0.33 2.64 0.66 4 1 C6.68149993 0.61432869 6.68149993 0.61432869 9 0 C8.01 2.97 7.02 5.94 6 9 C5.01 9 4.02 9 3 9 C2.01 6.03 1.02 3.06 0 0 Z " fill="#000000" transform="translate(351,336)"/>
<path d="M0 0 C2.97 0 5.94 0 9 0 C9 0.66 9 1.32 9 2 C8.01 2 7.02 2 6 2 C6 4.31 6 6.62 6 9 C5.01 9 4.02 9 3 9 C3 6.69 3 4.38 3 2 C2.01 2 1.02 2 0 2 C0 1.34 0 0.68 0 0 Z " fill="#000000" transform="translate(260,336)"/>
<path d="M0 0 C2.97 0 5.94 0 9 0 C9 0.66 9 1.32 9 2 C8.01 2 7.02 2 6 2 C6 4.31 6 6.62 6 9 C5.01 9 4.02 9 3 9 C3 6.69 3 4.38 3 2 C2.01 2 1.02 2 0 2 C0 1.34 0 0.68 0 0 Z " fill="#000000" transform="translate(173,336)"/>
<path d="M0 0 C2.97 0 5.94 0 9 0 C9 0.66 9 1.32 9 2 C8.01 2 7.02 2 6 2 C6 4.31 6 6.62 6 9 C5.01 9 4.02 9 3 9 C3 6.69 3 4.38 3 2 C2.01 2 1.02 2 0 2 C0 1.34 0 0.68 0 0 Z " fill="#000000" transform="translate(413,321)"/>
<path d="M0 0 C0.99 0 1.98 0 3 0 C3 2.31 3 4.62 3 7 C4.65 7 6.3 7 8 7 C8 7.66 8 8.32 8 9 C5.36 9 2.72 9 0 9 C0 6.03 0 3.06 0 0 Z " fill="#000000" transform="translate(193,336)"/>
<path d="M0 0 C0.99 0 1.98 0 3 0 C3 2.31 3 4.62 3 7 C4.32 7 5.64 7 7 7 C7 7.66 7 8.32 7 9 C4.69 9 2.38 9 0 9 C0 6.03 0 3.06 0 0 Z " fill="#000000" transform="translate(405,321)"/>
<path d="M0 0 C0.99 0 1.98 0 3 0 C3 2.97 3 5.94 3 9 C2.01 9 1.02 9 0 9 C0 6.03 0 3.06 0 0 Z " fill="#000000" transform="translate(270,336)"/>
<path d="M0 0 C0.99 0 1.98 0 3 0 C3 2.97 3 5.94 3 9 C2.01 9 1.02 9 0 9 C0 6.03 0 3.06 0 0 Z " fill="#000000" transform="translate(168,336)"/>
<path d="M0 0 C0.99 0 1.98 0 3 0 C3 2.97 3 5.94 3 9 C2.01 9 1.02 9 0 9 C0 6.03 0 3.06 0 0 Z " fill="#000000" transform="translate(152,336)"/>
</svg>
